<svg xmlns="http://www.w3.org/2000/svg" width="220" height="220" viewBox="0 0 220 220">
  <rect width="220" height="220" fill="#ffffff"/>
  <rect x="12" y="12" width="56" height="56" fill="#000"/>
  <rect x="24" y="24" width="32" height="32" fill="#fff"/>
  <rect x="32" y="32" width="16" height="16" fill="#000"/>
  <rect x="152" y="12" width="56" height="56" fill="#000"/>
  <rect x="164" y="24" width="32" height="32" fill="#fff"/>
  <rect x="172" y="32" width="16" height="16" fill="#000"/>
  <rect x="12" y="152" width="56" height="56" fill="#000"/>
  <rect x="24" y="164" width="32" height="32" fill="#fff"/>
  <rect x="32" y="172" width="16" height="16" fill="#000"/>
  <g fill="#000">
    <rect x="80" y="12" width="8" height="8"/><rect x="96" y="12" width="8" height="8"/><rect x="112" y="12" width="8" height="8"/>
    <rect x="128" y="28" width="8" height="8"/><rect x="80" y="28" width="8" height="8"/><rect x="88" y="36" width="8" height="8"/>
    <rect x="104" y="44" width="8" height="8"/><rect x="120" y="44" width="8" height="8"/><rect x="136" y="44" width="8" height="8"/>
    <rect x="80" y="60" width="8" height="8"/><rect x="100" y="60" width="8" height="8"/><rect x="116" y="68" width="8" height="8"/>
    <rect x="132" y="76" width="8" height="8"/><rect x="84" y="76" width="8" height="8"/><rect x="92" y="84" width="8" height="8"/>
    <rect x="108" y="92" width="8" height="8"/><rect x="124" y="92" width="8" height="8"/><rect x="140" y="92" width="8" height="8"/>
    <rect x="80" y="100" width="8" height="8"/><rect x="96" y="100" width="8" height="8"/><rect x="112" y="108" width="8" height="8"/>
    <rect x="128" y="108" width="8" height="8"/><rect x="144" y="108" width="8" height="8"/><rect x="88" y="116" width="8" height="8"/>
    <rect x="104" y="116" width="8" height="8"/><rect x="120" y="124" width="8" height="8"/><rect x="136" y="124" width="8" height="8"/>
    <rect x="80" y="132" width="8" height="8"/><rect x="96" y="140" width="8" height="8"/><rect x="112" y="140" width="8" height="8"/>
    <rect x="128" y="148" width="8" height="8"/><rect x="144" y="148" width="8" height="8"/><rect x="84" y="156" width="8" height="8"/>
    <rect x="100" y="164" width="8" height="8"/><rect x="116" y="164" width="8" height="8"/><rect x="132" y="164" width="8" height="8"/>
    <rect x="152" y="80" width="8" height="8"/><rect x="168" y="80" width="8" height="8"/><rect x="184" y="88" width="8" height="8"/>
    <rect x="152" y="96" width="8" height="8"/><rect x="176" y="104" width="8" height="8"/><rect x="160" y="112" width="8" height="8"/>
    <rect x="192" y="120" width="8" height="8"/><rect x="152" y="128" width="8" height="8"/><rect x="168" y="136" width="8" height="8"/>
    <rect x="184" y="144" width="8" height="8"/><rect x="152" y="152" width="8" height="8"/><rect x="176" y="160" width="8" height="8"/>
    <rect x="160" y="176" width="8" height="8"/><rect x="184" y="176" width="8" height="8"/><rect x="200" y="184" width="8" height="8"/>
  </g>
  <text x="110" y="208" text-anchor="middle" font-family="system-ui,sans-serif" font-size="11" fill="#0b63ce">VNPay QR (demo  thay b±ng mă th­t)</text>
</svg>
